<svg xmlns="http://www.w3.org/2000/svg" width="1656.381" height="809.6" viewBox="-0.191 0 414.095 202.4"><g data-name="CompositeLayer"><path d="M-.095 0h414v130.285a55.602 55.602 0 0 0-1.364-.335c-10.956-2.58-87.34-18.541-207.968 6.104a769.62 769.62 0 0 0-52.268 12.625 644.076 644.076 0 0 1-20.798 5.429C-6.358 187.555-.313 131.999-.1 130.324a2.485 2.485 0 0 1 .005-.039V0Z" fill="#065d6b" fill-rule="evenodd" data-name="Path 29"/><path d="M-.095 0h414v160.01a47.286 47.286 0 0 0-1.364-.41c-12.464-3.605-109.606-28.48-260.236 23a550.128 550.128 0 0 1-20.798 6.668C-8.459 230.972-.095 160.011-.095 160.011V0Z" fill="#065d6b" fill-rule="evenodd" data-name="Path 1"/></g></svg>